<svg width="18" height="19" viewBox="0 0 18 19" fill="none" xmlns="http://www.w3.org/2000/svg">
    <path d="M0 3.15283C0 1.91019 1.00736 0.902832 2.25 0.902832H5.34C6.58264 0.902832 7.59 1.91019 7.59 3.15283V6.24283C7.59 7.48547 6.58264 8.49283 5.34 8.49283H2.25C1.00736 8.49283 0 7.48547 0 6.24283V3.15283Z" fill="#FF7B00"/>
    <path d="M10.41 3.15283C10.41 1.91019 11.4174 0.902832 12.66 0.902832H15.75C16.9926 0.902832 18 1.91019 18 3.15283V6.24283C18 7.48547 16.9926 8.49283 15.75 8.49283H12.66C11.4174 8.49283 10.41 7.48547 10.41 6.24283V3.15283Z" fill="#FF7B00"/>
    <path d="M0 13.5528C0 12.3102 1.00736 11.3028 2.25 11.3028H5.34C6.58264 11.3028 7.59 12.3102 7.59 13.5528V16.6428C7.59 17.8855 6.58264 18.8928 5.34 18.8928H2.25C1.00736 18.8928 0 17.8855 0 16.6428V13.5528Z" fill="#FF7B00"/>
    <path d="M10.41 13.5528C10.41 12.3102 11.4174 11.3028 12.66 11.3028H15.75C16.9926 11.3028 18 12.3102 18 13.5528V16.6428C18 17.8855 16.9926 18.8928 15.75 18.8928H12.66C11.4174 18.8928 10.41 17.8855 10.41 16.6428V13.5528Z" fill="#FF7B00"/>
</svg>