<svg width="21" height="21" viewBox="0 0 21 21" fill="none" xmlns="http://www.w3.org/2000/svg">
    <path fill-rule="evenodd" clip-rule="evenodd" d="M5.1 0.893888H15.15C17.8694 0.870911 20.1085 3.02561 20.19 5.74389V13.0239C20.1084 15.7461 17.8633 17.9023 15.14 17.8739H13.58C13.1914 17.8751 12.824 18.0514 12.58 18.3539L11.1 20.2339C10.853 20.5312 10.4865 20.7032 10.1 20.7032C9.71347 20.7032 9.34698 20.5312 9.1 20.2339L7.61 18.3539C7.36598 18.0514 6.99862 17.8751 6.61 17.8739H5.1C2.35739 17.93 0.0817222 15.7659 0 13.0239V5.74389C0.0817222 3.00192 2.35739 0.837807 5.1 0.893888ZM6.35 11.3739C6.76421 11.3739 7.1 11.0381 7.1 10.6239V8.22389C7.1 7.80967 6.76421 7.47389 6.35 7.47389C5.93579 7.47389 5.6 7.80967 5.6 8.22389V10.6239C5.6 11.0381 5.93579 11.3739 6.35 11.3739ZM10.85 10.6239C10.85 11.0381 10.5142 11.3739 10.1 11.3739C9.68579 11.3739 9.35 11.0381 9.35 10.6239V8.22389C9.35 7.80967 9.68579 7.47389 10.1 7.47389C10.5142 7.47389 10.85 7.80967 10.85 8.22389V10.6239ZM13.85 11.3739C14.2642 11.3739 14.6 11.0381 14.6 10.6239V8.22389C14.6 7.80967 14.2642 7.47389 13.85 7.47389C13.4358 7.47389 13.1 7.80967 13.1 8.22389V10.6239C13.1 11.0381 13.4358 11.3739 13.85 11.3739Z" fill="#B3B8C2"/>
</svg>
