<svg width="23" height="19" viewBox="0 0 23 19" fill="none" xmlns="http://www.w3.org/2000/svg">
    <path d="M11.4167 2.84104C6.72917 -2.02771 1 1.56499 1 6.63062C1 11.6952 5.1875 14.3942 8.25208 16.8108C9.33333 17.6629 10.375 18.466 11.4167 18.466" fill="#FF7B00"/>
    <path d="M11.4167 2.84104C6.72917 -2.02771 1 1.56499 1 6.63062C1 11.6952 5.1875 14.3942 8.25208 16.8108C9.33333 17.6629 10.375 18.466 11.4167 18.466" stroke="#FF7B00" stroke-width="0.75" stroke-linecap="round"/>
    <g opacity="0.5">
        <path d="M11.4165 2.84104C16.104 -2.02771 21.8332 1.56499 21.8332 6.63062C21.8332 11.6962 17.6457 14.3952 14.5811 16.8119C13.4998 17.6629 12.4582 18.466 11.4165 18.466" fill="#FF7B00"/>
        <path d="M11.4165 2.84104C16.104 -2.02771 21.8332 1.56499 21.8332 6.63062C21.8332 11.6962 17.6457 14.3952 14.5811 16.8119C13.4998 17.6629 12.4582 18.466 11.4165 18.466" stroke="#FF7B00" stroke-width="0.75" stroke-linecap="round"/>
    </g>
</svg>
