<svg width="20" height="21" viewBox="0 0 20 21" fill="none" xmlns="http://www.w3.org/2000/svg">
    <path d="M11.76 10.7028C11.76 11.7853 10.8825 12.6628 9.8 12.6628C8.71752 12.6628 7.84 11.7853 7.84 10.7028C7.84 9.62034 8.71752 8.74282 9.8 8.74282C10.8825 8.74282 11.76 9.62034 11.76 10.7028Z" fill="#B3B8C2"/>
    <path fill-rule="evenodd" clip-rule="evenodd" d="M17.2264 7.6236C17.4169 8.08773 17.8683 8.39136 18.37 8.39282C18.6989 8.39282 19.0143 8.52347 19.2468 8.75601C19.4794 8.98855 19.61 9.30395 19.61 9.63282V11.7728C19.61 12.4577 19.0548 13.0128 18.37 13.0128C17.8683 13.0143 17.4169 13.3179 17.2264 13.782C17.036 14.2462 17.144 14.7794 17.5 15.1328C17.9776 15.6223 17.9776 16.4034 17.5 16.8928L16 18.3928C15.5105 18.8705 14.7295 18.8705 14.24 18.3928C13.8865 18.0368 13.3534 17.9288 12.8892 18.1193C12.4251 18.3097 12.1215 18.7611 12.12 19.2628C12.12 19.9477 11.5648 20.5028 10.88 20.5028H8.74C8.05517 20.5028 7.5 19.9477 7.5 19.2628C7.49854 18.7611 7.19491 18.3097 6.73077 18.1193C6.26664 17.9288 5.73346 18.0368 5.38 18.3928C4.89055 18.8705 4.10945 18.8705 3.62 18.3928L2.12 16.8928C1.64237 16.4034 1.64237 15.6223 2.12 15.1328C2.47735 14.7781 2.5847 14.2425 2.39166 13.7774C2.19862 13.3124 1.74352 13.0102 1.24 13.0128C0.555167 13.0128 0 12.4577 0 11.7728V9.63282C0 8.94799 0.555167 8.39282 1.24 8.39282C1.7417 8.39136 2.19308 8.08773 2.38355 7.6236C2.57402 7.15946 2.46605 6.62628 2.11 6.27282C1.63237 5.78337 1.63237 5.00227 2.11 4.51282L3.61 3.01282C4.09945 2.53519 4.88055 2.53519 5.37 3.01282C5.72474 3.37017 6.26035 3.47752 6.7254 3.28448C7.19046 3.09144 7.4926 2.63634 7.49 2.13282C7.49 1.44799 8.04517 0.892822 8.73 0.892822H10.88C11.2089 0.892822 11.5243 1.02346 11.7568 1.25601C11.9894 1.48855 12.12 1.80395 12.12 2.13282C12.1174 2.63634 12.4195 3.09144 12.8846 3.28448C13.3496 3.47752 13.8853 3.37017 14.24 3.01282C14.7295 2.53519 15.5105 2.53519 16 3.01282L17.5 4.51282C17.9776 5.00227 17.9776 5.78337 17.5 6.27282C17.144 6.62628 17.036 7.15946 17.2264 7.6236ZM6.34 10.7028C6.34 12.6137 7.88909 14.1628 9.8 14.1628C11.7109 14.1628 13.26 12.6137 13.26 10.7028C13.26 8.79192 11.7109 7.24282 9.8 7.24282C7.88909 7.24282 6.34 8.79192 6.34 10.7028Z" fill="#B3B8C2"/>
</svg>
