<svg width="20" height="21" viewBox="0 0 20 21" fill="none" xmlns="http://www.w3.org/2000/svg">
    <path d="M11.76 10.7026C11.76 11.7851 10.8825 12.6626 9.8 12.6626C8.71752 12.6626 7.84 11.7851 7.84 10.7026C7.84 9.6201 8.71752 8.74258 9.8 8.74258C10.8825 8.74258 11.76 9.6201 11.76 10.7026Z" fill="#FF7B00"/>
    <path fill-rule="evenodd" clip-rule="evenodd" d="M17.2264 7.62335C17.4169 8.08749 17.8683 8.39112 18.37 8.39258C18.6989 8.39258 19.0143 8.52322 19.2468 8.75577C19.4794 8.98831 19.61 9.30371 19.61 9.63258V11.7726C19.61 12.4574 19.0548 13.0126 18.37 13.0126C17.8683 13.014 17.4169 13.3177 17.2264 13.7818C17.036 14.2459 17.144 14.7791 17.5 15.1326C17.9776 15.622 17.9776 16.4031 17.5 16.8926L16 18.3926C15.5105 18.8702 14.7295 18.8702 14.24 18.3926C13.8865 18.0365 13.3534 17.9286 12.8892 18.119C12.4251 18.3095 12.1215 18.7609 12.12 19.2626C12.12 19.9474 11.5648 20.5026 10.88 20.5026H8.74C8.05517 20.5026 7.5 19.9474 7.5 19.2626C7.49854 18.7609 7.19491 18.3095 6.73077 18.119C6.26664 17.9286 5.73346 18.0365 5.38 18.3926C4.89055 18.8702 4.10945 18.8702 3.62 18.3926L2.12 16.8926C1.64237 16.4031 1.64237 15.622 2.12 15.1326C2.47735 14.7778 2.5847 14.2422 2.39166 13.7772C2.19862 13.3121 1.74352 13.01 1.24 13.0126C0.555167 13.0126 0 12.4574 0 11.7726V9.63258C0 8.94774 0.555167 8.39258 1.24 8.39258C1.7417 8.39112 2.19308 8.08749 2.38355 7.62335C2.57402 7.15921 2.46605 6.62604 2.11 6.27258C1.63237 5.78313 1.63237 5.00203 2.11 4.51258L3.61 3.01258C4.09945 2.53495 4.88055 2.53495 5.37 3.01258C5.72474 3.36993 6.26035 3.47728 6.7254 3.28424C7.19046 3.09119 7.4926 2.6361 7.49 2.13258C7.49 1.44775 8.04517 0.892578 8.73 0.892578H10.88C11.2089 0.892578 11.5243 1.02322 11.7568 1.25577C11.9894 1.48831 12.12 1.80371 12.12 2.13258C12.1174 2.6361 12.4195 3.09119 12.8846 3.28424C13.3496 3.47728 13.8853 3.36993 14.24 3.01258C14.7295 2.53495 15.5105 2.53495 16 3.01258L17.5 4.51258C17.9776 5.00203 17.9776 5.78313 17.5 6.27258C17.144 6.62604 17.036 7.15921 17.2264 7.62335ZM6.34 10.7026C6.34 12.6135 7.88909 14.1626 9.8 14.1626C11.7109 14.1626 13.26 12.6135 13.26 10.7026C13.26 8.79167 11.7109 7.24258 9.8 7.24258C7.88909 7.24258 6.34 8.79167 6.34 10.7026Z" fill="#FF7B00"/>
</svg>
